<svg xmlns="http://www.w3.org/2000/svg" xml:space="preserve" style="fill-rule:evenodd;clip-rule:evenodd;stroke-linejoin:round;stroke-miterlimit:1.41421" viewBox="0 0 135 93"><path d="M51.307 24.163v21.449L34.219 24.163zM34.219 75.519V52.884l17.088 22.627zm51.618-51.356L66.563 75.519V30.408zm24.448 0 19.276 51.356V24.163zM.152 75.511H18.06V40.088L.152 75.499zm85.685-58.633H67.009L85.753.359zm2.04 46.431 10.184-26.936 10.183 26.936z" style="fill:#1a5cc6"/><path d="m2.451 92.466.007-5.92h.046l6.428 6.099h.326l.012-10.426-2.298-.003-.007 5.734h-.062c-2.143-2.1-4.271-3.843-6.397-5.943l-.341-.001-.012 10.458zM18.445 90.7l-4.926-.006.003-2.691 4.149.005.002-1.723-4.149-.005.002-2.271 4.632.005.002-1.785-6.945-.008-.012 10.256 7.24.008zm8.672 1.795 2.347.003-4.775-10.448h-.342L19.47 92.486l2.3.003.717-1.616 3.932.005zm-2.666-6.047h.062l1.224 2.846-2.549-.003zm15.518-4.38-.326-.001c-1.652 3.48-3.288 6.975-4.939 10.437l10.133.012zm-.268 3.792h.031l2.201 4.867-4.414-.005c.732-1.709 1.449-3.169 2.182-4.862m15.362 6.667.012-10.255-2.314-.003-.005 4.025-4.058-.004.004-4.026-2.313-.002-.012 10.255 2.314.003.005-4.429 4.058.004-.005 4.43zm7.883-1.886 2.802-3.12c.015 0 .046 0 .062.015l-.006 5.004 2.236.002.012-10.426-.326-.001-4.948 5.729c-1.646-1.929-3.307-3.796-4.951-5.74h-.341l-.012 10.426 2.22.003.006-5.004c.015 0 .031 0 .047-.015l2.857 3.126zm12.664 2.081c3.233.004 5.503-2.292 5.507-5.292.003-2.97-2.23-5.317-5.479-5.321-3.187-.004-5.535 2.339-5.539 5.308-.003 3 2.091 5.301 5.511 5.305m.041-8.703c1.943.002 3.185 1.527 3.183 3.408-.002 1.912-1.248 3.45-3.191 3.448-1.974-.003-3.216-1.497-3.214-3.455.002-1.897 1.294-3.403 3.222-3.401m9.87-1.712-2.329-.003-.012 10.256 2.329.003.006-5.082 3.848 5.086 2.674.003-4.299-5.319 4.031-4.937-2.518-.003-3.736 4.704zM93.5 92.572l2.329.003.004-3.311 1.71.002c2.27.003 3.778-1.501 3.78-3.499.002-1.75-1.238-3.443-3.881-3.446l-3.931-.005zm3.552-8.528c1.384.001 1.958.877 1.957 1.767-.001.781-.437 1.733-1.977 1.731l-1.213-.001.004-3.499zm11.336 8.545 2.346.003-4.774-10.448h-.342l-4.877 10.436 2.3.003.717-1.616 3.932.005zm-2.667-6.047h.063l1.224 2.846-2.549-.003zm12.871-2.411.002-1.786-8.297-.009-.003 1.785 3 .004-.01 8.47 2.314.002.01-8.47zm3.938 8.475.012-10.256-2.314-.003-.012 10.256zm9.264.01 2.346.003-4.774-10.448h-.342l-4.877 10.436 2.3.003.717-1.615 3.932.004zm-2.667-6.047h.063l1.224 2.846-2.549-.003z" style="fill:#1a5cc6;fill-rule:nonzero"/></svg>