<svg xmlns="http://www.w3.org/2000/svg" width="324" height="277"><path fill="#e30101" d="M1 107.22v134h43v-59l26.33 59h43.18L84.6 171.68l28.29-64.46H70.14L45 161v-53.78zm117-.12v134.12h43v-59l26.33 59h43.18l-28.91-69.6 28.29-64.4h-42.75L162 160.88v-53.66zm120 136.12-1.84-136H322v33h-43v16h43v32h-43v19h43v36zM0 257h321v19H0zM0 69.22h117.66l-8.1 18H0zm324 0H209.49l12.34 18H324zm-205.69 18h14.23l2.66-5.67c19.4 7.46 33.4 8.11 50.28-1.84l6.38 7.52h16.37l-11.95-15.58c17.46-35.59.24-62-34.51-71.65 15.05 16.75 42.12 32.88 25.38 60.65l-19.32-19.33L179 30.19l-4.7-5h-19.36l-20.4 20.4 13.16 13.18 8.59-8.59L175.07 69c-10.66 7.17-27 5.79-37.31-.27-7.25-4-7.25-4.29-7.25-4.29z"/></svg>