<svg xmlns="http://www.w3.org/2000/svg" width="743.587" height="324.945" viewBox="0 0 196.741 85.975"><path d="M1.917 23.682a1.918 1.918 0 0 0-1.129 3.469l18.9 13.756-7.148 22.15a1.918 1.918 0 0 0 2.954 2.143L35.41 50.75a1.92 1.92 0 0 0 .427-2.68 1.92 1.92 0 0 0-2.68-.425L17.996 58.643l5.772-17.879a1.92 1.92 0 0 0-.697-2.14L7.812 27.518h18.807a1.92 1.92 0 0 0 1.92-1.918 1.92 1.92 0 0 0-1.92-1.918zM34.242 0a2 2 0 0 0-.559.094 1.92 1.92 0 0 0-1.23 2.418l12.336 37.972a1.9 1.9 0 0 0 .194.598l7.577 23.321a1.92 1.92 0 0 0 2.418 1.232 1.92 1.92 0 0 0 1.23-2.416l-7.245-22.302 18.904-13.713a1.92 1.92 0 0 0 .425-2.678 1.92 1.92 0 0 0-1.607-.791 1.9 1.9 0 0 0-1.073.363L47.717 37.082 36.1 1.327A1.92 1.92 0 0 0 34.241 0" style="color:#000;font-style:normal;font-variant:normal;font-weight:400;font-stretch:normal;font-size:medium;line-height:normal;font-family:sans-serif;font-variant-ligatures:normal;font-variant-position:normal;font-variant-caps:normal;font-variant-numeric:normal;font-variant-alternates:normal;font-variant-east-asian:normal;font-feature-settings:normal;font-variation-settings:normal;text-indent:0;text-align:start;text-decoration:none;text-decoration-line:none;text-decoration-style:solid;text-decoration-color:#000;letter-spacing:normal;word-spacing:normal;text-transform:none;writing-mode:lr-tb;direction:ltr;text-orientation:mixed;dominant-baseline:auto;baseline-shift:baseline;text-anchor:start;white-space:normal;shape-padding:0;shape-margin:0;inline-size:0;clip-rule:nonzero;display:inline;overflow:visible;visibility:visible;opacity:1;isolation:auto;mix-blend-mode:normal;color-interpolation:sRGB;color-interpolation-filters:linearRGB;solid-color:#000;solid-opacity:1;vector-effect:none;fill:#d3232a;fill-opacity:1;fill-rule:nonzero;stroke:none;stroke-width:3.83646;stroke-linecap:round;stroke-linejoin:round;stroke-miterlimit:4;stroke-dasharray:none;stroke-dashoffset:0;stroke-opacity:1;color-rendering:auto;image-rendering:auto;shape-rendering:auto;text-rendering:auto;stop-color:#000;stop-opacity:1"/><path d="M127.544 23.682a1.92 1.92 0 0 0-1.918 1.918 1.92 1.92 0 0 0 1.918 1.918h19.21l-22.78 35.092a1.918 1.918 0 0 0 1.607 2.963h19.63a1.92 1.92 0 0 0 1.917-1.918 1.92 1.92 0 0 0-1.918-1.918h-16.095l22.78-35.092a1.918 1.918 0 0 0-1.609-2.963Zm-13.777 0a1.92 1.92 0 0 0-1.918 1.918v38.055a1.92 1.92 0 0 0 1.918 1.918 1.92 1.92 0 0 0 1.918-1.918V25.6a1.92 1.92 0 0 0-1.918-1.918m-25.576-.168-9.5.168a1.92 1.92 0 0 0-1.885 1.918v38.055a1.92 1.92 0 0 0 1.918 1.918 1.92 1.92 0 0 0 1.918-1.918v-36.17l7.617-.135h.043c4.277-.174 7.173 1.095 9.074 2.957s2.835 4.41 2.805 6.994c-.03 2.585-1.032 5.153-2.947 7.014s-4.748 3.097-8.807 2.9a1.92 1.92 0 0 0-2.01 1.825 1.92 1.92 0 0 0 1.825 2.007c4.955.24 8.97-1.36 11.666-3.98s4.067-6.175 4.109-9.72-1.254-7.136-3.955-9.782-6.78-4.258-11.914-4.049z" style="color:#000;font-style:normal;font-variant:normal;font-weight:400;font-stretch:normal;font-size:medium;line-height:normal;font-family:sans-serif;font-variant-ligatures:normal;font-variant-position:normal;font-variant-caps:normal;font-variant-numeric:normal;font-variant-alternates:normal;font-variant-east-asian:normal;font-feature-settings:normal;font-variation-settings:normal;text-indent:0;text-align:start;text-decoration:none;text-decoration-line:none;text-decoration-style:solid;text-decoration-color:#000;letter-spacing:normal;word-spacing:normal;text-transform:none;writing-mode:lr-tb;direction:ltr;text-orientation:mixed;dominant-baseline:auto;baseline-shift:baseline;text-anchor:start;white-space:normal;shape-padding:0;shape-margin:0;inline-size:0;clip-rule:nonzero;display:inline;overflow:visible;visibility:visible;opacity:1;isolation:auto;mix-blend-mode:normal;color-interpolation:sRGB;color-interpolation-filters:linearRGB;solid-color:#000;solid-opacity:1;vector-effect:none;fill:#af191f;fill-opacity:1;fill-rule:nonzero;stroke:none;stroke-width:3.83646;stroke-linecap:round;stroke-linejoin:round;stroke-miterlimit:4;stroke-dasharray:none;stroke-dashoffset:0;stroke-opacity:1;color-rendering:auto;image-rendering:auto;shape-rendering:auto;text-rendering:auto;stop-color:#000;stop-opacity:1"/><path d="M175.144 23.682a1.92 1.92 0 0 0-1.664.963L151.656 62.7a1.92 1.92 0 0 0 .709 2.619 1.92 1.92 0 0 0 2.619-.711l20.072-34.998 9.104 17.603h-9.147a1.92 1.92 0 0 0-1.918 1.918 1.92 1.92 0 0 0 1.918 1.92h11.132l6.973 13.485a1.92 1.92 0 0 0 2.585.822 1.92 1.92 0 0 0 .824-2.584l-19.68-38.055a1.92 1.92 0 0 0-1.703-1.037" style="color:#000;font-style:normal;font-variant:normal;font-weight:400;font-stretch:normal;font-size:medium;line-height:normal;font-family:sans-serif;font-variant-ligatures:normal;font-variant-position:normal;font-variant-caps:normal;font-variant-numeric:normal;font-variant-alternates:normal;font-variant-east-asian:normal;font-feature-settings:normal;font-variation-settings:normal;text-indent:0;text-align:start;text-decoration:none;text-decoration-line:none;text-decoration-style:solid;text-decoration-color:#000;letter-spacing:normal;word-spacing:normal;text-transform:none;writing-mode:lr-tb;direction:ltr;text-orientation:mixed;dominant-baseline:auto;baseline-shift:baseline;text-anchor:start;white-space:normal;shape-padding:0;shape-margin:0;inline-size:0;clip-rule:nonzero;display:inline;overflow:visible;visibility:visible;opacity:1;isolation:auto;mix-blend-mode:normal;color-interpolation:sRGB;color-interpolation-filters:linearRGB;solid-color:#000;solid-opacity:1;vector-effect:none;fill:#861f26;fill-opacity:1;fill-rule:nonzero;stroke:none;stroke-width:3.83646;stroke-linecap:round;stroke-linejoin:round;stroke-miterlimit:4;stroke-dasharray:none;stroke-dashoffset:0;stroke-opacity:1;color-rendering:auto;image-rendering:auto;shape-rendering:auto;text-rendering:auto;stop-color:#000;stop-opacity:1"/><path d="M172.02 78.475h-.92l-3.286 6.965-.147.31h1.61l.587-1.244h3.392l.587 1.245h1.61l-.147-.311zm-.46 2.436 1.01 2.14h-2.02zm-51.869-2.436.176.303 1.128 1.94.366.628 1.154 1.985v2.42h1.455v-2.416l1.522-2.618 1.127-1.94.176-.302h-1.683l-.878 1.512-.368.629h.001l-.623 1.073-.99-1.702-.88-1.512zm44.985 0v7.276h1.455v-7.276zm-8.869 0 .308.412 2.406 3.214-2.406 3.214-.326.436h1.816l1.825-2.437 1.824 2.437h1.816l-.326-.436-2.406-3.214 2.406-3.214.309-.412h-1.818l-1.805 2.412-1.806-2.412zm-4.298 0h-.92l-3.286 6.965-.147.31h1.61l.587-1.244h3.392l.587 1.245h1.61l-.147-.311zm-.46 2.436 1.01 2.14h-2.02zm-13.03-2.436v7.276h1.456v-3.893l2.335 3.229 2.336-3.23v3.894h1.455v-7.276h-.803l-2.988 4.129-2.987-4.129zm-9.704 0v7.276h1.454V81.86l2.337 3.227 2.335-3.23v3.894h1.456v-7.276h-.803l-2.988 4.129-2.988-4.129zm-15.145-.133a.728.728 0 0 0-.578 1.17l1.996 2.61-2.002 2.691a.728.728 0 0 0 .584 1.162h5.164V84.52h-3.715l1.465-1.969a.73.73 0 0 0-.006-.877l-1.436-1.877h3.692v-1.455zm-12.953.133v7.276h1.457v-2.295h3.465v2.295h1.454v-7.276h-1.454V82h-3.465v-3.525zm-8.137 0v7.276h1.455v-1.517l.936-1.062 2.329 2.579h1.96l-.414-.46-2.905-3.22 2.774-3.148.393-.448h-1.939l-3.134 3.559v-3.559zm-3.537 0v7.276h1.455v-7.276zm-7.8-.133v1.455h2.245v5.954h1.455v-5.954h2.246v-1.455zm-8.364.133.176.303 1.128 1.94.366.628 1.154 1.985v2.42h1.455v-2.416l1.522-2.618 1.127-1.94.177-.302H77.8l-.878 1.512-.368.629h.001l-.623 1.073-.99-1.702-.88-1.512zm-6.842-.133v7.633H71.1V84.52h-4.106v-1.54h3.174v-1.456h-3.174v-1.727h3.907v-1.455zm-5.786.133-3.39 7.366h7.645l-3.32-7.366zm.458 2.485 1.545 3.425h-3.121zm-8.984-2.68c-2.145 0-3.916 1.716-3.916 3.838s1.77 3.84 3.916 3.84a3.867 3.867 0 0 0 3.855-3.55.7.7 0 0 0 .06-.29.7.7 0 0 0-.06-.291 3.865 3.865 0 0 0-3.855-3.547m0 1.455c1.377 0 2.46 1.067 2.46 2.383 0 1.315-1.083 2.384-2.46 2.384s-2.461-1.069-2.461-2.384c0-1.316 1.083-2.383 2.46-2.383m-9.471-1.455c-2.145 0-3.918 1.716-3.918 3.838s1.773 3.84 3.918 3.84c2.04 0 3.694-1.57 3.855-3.547a.7.7 0 0 0 .06-.293.7.7 0 0 0-.06-.291 3.865 3.865 0 0 0-3.855-3.547m0 1.455c1.378 0 2.46 1.067 2.46 2.383 0 1.315-1.082 2.384-2.46 2.384s-2.461-1.069-2.461-2.384c0-1.316 1.083-2.383 2.46-2.383m-11.195-1.381v7.397h1.455v-1.805h1.95c.78 0 1.451-.4 1.858-.934s.6-1.188.62-1.842c.018-.653-.138-1.323-.547-1.875a2.4 2.4 0 0 0-1.93-.941zm1.455 1.455h1.95c.409 0 .594.13.76.354s.273.586.262.966c-.01.38-.138.761-.322 1.002-.183.241-.372.36-.7.36h-1.95zm-9.93-1.455v7.397h1.455v-5.942h3.436v5.942h1.455v-7.397z" style="color:#000;font-style:normal;font-variant:normal;font-weight:400;font-stretch:normal;font-size:medium;line-height:normal;font-family:sans-serif;font-variant-ligatures:normal;font-variant-position:normal;font-variant-caps:normal;font-variant-numeric:normal;font-variant-alternates:normal;font-variant-east-asian:normal;font-feature-settings:normal;font-variation-settings:normal;text-indent:0;text-align:start;text-decoration:none;text-decoration-line:none;text-decoration-style:solid;text-decoration-color:#000;letter-spacing:normal;word-spacing:normal;text-transform:none;writing-mode:lr-tb;direction:ltr;text-orientation:mixed;dominant-baseline:auto;baseline-shift:baseline;text-anchor:start;white-space:normal;shape-padding:0;shape-margin:0;inline-size:0;clip-rule:nonzero;display:inline;overflow:visible;visibility:visible;opacity:1;isolation:auto;mix-blend-mode:normal;color-interpolation:sRGB;color-interpolation-filters:linearRGB;solid-color:#000;solid-opacity:1;vector-effect:none;fill:#99202d;fill-opacity:1;fill-rule:nonzero;stroke:none;stroke-width:.79375;stroke-linecap:butt;stroke-linejoin:miter;stroke-miterlimit:4;stroke-dasharray:none;stroke-dashoffset:0;stroke-opacity:1;color-rendering:auto;image-rendering:auto;shape-rendering:auto;text-rendering:auto;stop-color:#000;stop-opacity:1"/></svg>